<?xml version="1.0" encoding="utf-8"?>
<!-- Generator: Adobe Illustrator 25.3.1, SVG Export Plug-In . SVG Version: 6.00 Build 0)  -->
<svg version="1.1" id="flag-icon-css-tt" xmlns="http://www.w3.org/2000/svg" xmlns:xlink="http://www.w3.org/1999/xlink" x="0px"
	 y="0px" viewBox="0 0 640 480" style="enable-background:new 0 0 640 480;" xml:space="preserve">
<style type="text/css">
	.st0{fill:#FFFFFF;}
</style>
<g>
	<rect x="-10" class="st0" width="660" height="480"/>
	<rect x="-10" y="45" width="660" height="75"/>
	<rect x="-10" y="360" width="660" height="75"/>
	<g>
		<path d="M220.7,172.9c0,54.8,44.5,99.3,99.3,99.3s99.3-44.5,99.3-99.3c0,0,0,0,0,0h-9.5c0,49.6-40.2,89.9-89.9,89.9
			s-89.9-40.2-89.9-89.9H220.7z"/>
		<path d="M249.3,173.4c0,39.1,31.6,70.8,70.7,70.8c39.1,0,70.8-31.6,70.8-70.7c0,0,0-0.1,0-0.1h-9.5c0,33.8-27.4,61.2-61.2,61.3
			s-61.2-27.4-61.3-61.2c0,0,0,0,0-0.1H249.3z"/>
		<path d="M278.2,172.9c0,23.1,18.7,41.9,41.8,41.9c23.1,0,41.9-18.7,41.9-41.8c0,0,0,0,0-0.1h-9.5c0,17.9-14.5,32.4-32.4,32.4
			s-32.4-14.5-32.4-32.4H278.2z"/>
		<path d="M268.6,317.9v6.5h102.9v-6.5l-46.7-10.4V165.6h-9.5v141.8L268.6,317.9z"/>
		<g id="c3">
			<path id="c" d="M213.4,161h24.1l-7.3,9.9h-9.5L213.4,161z"/>
			<g>
				<path id="c_1_" d="M242.1,161h24.1l-7.3,9.9h-9.5L242.1,161z"/>
			</g>
			<g>
				<path id="c_2_" d="M270.8,161H295l-7.3,9.9h-9.5L270.8,161z"/>
			</g>
		</g>
		<g>
			<path id="c_3_" d="M307.9,153.8h24.1l-7.3,9.9h-9.5L307.9,153.8z"/>
		</g>
		<g>
			<g id="c3_1_">
				<path id="c_4_" d="M345,161h24.1l-7.3,9.9h-9.5L345,161z"/>
				<g>
					<path id="c_5_" d="M373.8,161h24.1l-7.3,9.9h-9.5L373.8,161z"/>
				</g>
				<g>
					<path id="c_6_" d="M402.5,161h24.1l-7.3,9.9h-9.5L402.5,161z"/>
				</g>
			</g>
		</g>
	</g>
</g>
</svg>
